<?xml version="1.0" encoding="utf-8"?>
<!-- Generator: Adobe Illustrator 22.0.1, SVG Export Plug-In . SVG Version: 6.00 Build 0)  -->
<svg version="1.1" id="Layer_1" xmlns="http://www.w3.org/2000/svg" xmlns:xlink="http://www.w3.org/1999/xlink" x="0px" y="0px"
	 viewBox="0 0 437.8 491.7" style="enable-background:new 0 0 437.8 491.7;" xml:space="preserve">
<style type="text/css">
	.st0{fill:url(#SVGID_1_);}
</style>
<linearGradient id="SVGID_1_" gradientUnits="userSpaceOnUse" x1="405.4425" y1="568.8142" x2="100.9113" y2="41.3504">
	<stop  offset="0" style="stop-color:#7F00FF"/>
	<stop  offset="1" style="stop-color:#E100FF"/>
</linearGradient>
<path class="st0" d="M438.7,149.6c0.3-20.3-8.1-33.5-24.7-43.2C357.9,73.6,301.6,41.1,245.7,7.9c-18.3-10.9-35-10.3-53.1,0.4
	c-56.4,33.2-113,65.9-169.8,98.5c-15.4,8.8-23,21.1-22.8,39.1c0.4,32.9,0.1,65.9,0.1,98.8h0.1c0,33.3,0.4,66.7-0.1,100
	c-0.3,18.5,7.7,31.6,23.2,40.5c57,33,114.2,65.6,170.9,99c17.7,10.5,33.6,9.4,50.8-0.6c55-32.3,110-64.7,165.7-95.9
	c20.1-11.3,27.9-26.7,27.8-49C437.9,275.7,437.8,212.6,438.7,149.6z M328.4,193.3c-0.5,17.6-0.2,35.3-0.2,53c-0.1,0-0.1,0-0.2,0
	c0,17.7,0.6,35.3-0.4,53c-0.3,4.9-4,11.6-8.2,14.1c-30.2,18.2-60.8,35.9-91.7,52.9c-4.2,2.3-11.9,2.2-16.1-0.2
	c-30.5-16.9-60.5-34.8-90.8-52.2c-6.9-3.9-10.4-8.8-10.3-17.2c0.4-34.5,0.4-69,0.1-103.5c-0.1-7.7,2.6-12.6,9.4-16.5
	c30.3-17.4,60.4-35,90.4-52.9c6.9-4.1,12.3-3.7,18.8,0.1c29.4,17.3,58.9,34.4,88.6,51.2C325.4,179.2,328.7,184.5,328.4,193.3z"/>
</svg>
