<?xml version="1.0" encoding="utf-8"?>
<!-- Generator: Adobe Illustrator 21.1.0, SVG Export Plug-In . SVG Version: 6.00 Build 0)  -->
<svg version="1.1" id="Layer_1" xmlns="http://www.w3.org/2000/svg" xmlns:xlink="http://www.w3.org/1999/xlink" x="0px" y="0px"
	 viewBox="0 0 536 600" style="enable-background:new 0 0 536 600;" xml:space="preserve">
<style type="text/css">
	.st0{fill:url(#SVGID_1_);}
</style>
<linearGradient id="SVGID_1_" gradientUnits="userSpaceOnUse" x1="495.1552" y1="694.2341" x2="123.4641" y2="50.4461">
	<stop  offset="0" style="stop-color:#416CB4"/>
	<stop  offset="1" style="stop-color:#94B3FF"/>
</linearGradient>
<path class="st0" d="M535.7,182.5c0.3-24.7-9.9-40.9-30.1-52.7c-68.5-40-137.2-79.7-205.4-120.2c-22.4-13.3-42.6-12.5-64.8,0.5
	c-68.8,40.5-138,80.4-207.2,120.2C9.4,141.1,0,156.1,0.3,178.1c0.5,40.2,0.2,80.4,0.2,120.6c0,0,0.1,0,0.1,0
	c0,40.7,0.4,81.4-0.2,122c-0.3,22.6,9.4,38.5,28.3,49.5c69.5,40.3,139.4,80,208.6,120.8c21.6,12.8,41,11.5,62-0.8
	c67.2-39.4,134.3-79,202.3-117c24.6-13.8,34.1-32.6,33.9-59.8C534.8,336.4,534.7,259.5,535.7,182.5z M401.2,235.9
	c-0.6,21.5-0.2,43.1-0.2,64.7c-0.1,0-0.2,0-0.2,0c0,21.6,0.7,43.1-0.5,64.6c-0.3,6-4.9,14.1-10,17.2c-36.9,22.2-74.2,43.8-112,64.6
	c-5.1,2.8-14.5,2.6-19.7-0.2c-37.2-20.7-73.8-42.5-110.8-63.7c-8.4-4.8-12.7-10.7-12.6-21.1c0.5-42.1,0.4-84.3,0.1-126.4
	c-0.1-9.4,3.2-15.3,11.4-20.1c37-21.2,73.8-42.7,110.3-64.6c8.4-5,15-4.6,23,0.2c35.9,21.1,71.9,42,108.1,62.5
	C397.5,218.7,401.5,225.2,401.2,235.9z"/>
</svg>
