<svg id="Layer_1" data-name="Layer 1" xmlns="http://www.w3.org/2000/svg" viewBox="0 0 740.08 465.84"><defs><style>.cls-1{fill:#fff;}</style></defs><title>placeholder-logo-white</title><path class="cls-1" d="M234.45,214.92H179.27V174.34l5.31-109.18L135.15,214.92h-36L49.72,65.16l5.46,109.18v40.58H0V.09H72.44l44.71,142.53L161.86.09h72.59Z" transform="translate(0 -0.09)"/><path class="cls-1" d="M268.83,214.92V.09h54.73V214.92Z" transform="translate(0 -0.09)"/><path class="cls-1" d="M484.39,214.92,412.68,90v125h-55V.09h55l71.56,124.82V.09h54.89V214.92Z" transform="translate(0 -0.09)"/><path class="cls-1" d="M691.47,13.37a94.06,94.06,0,0,1,35.7,36.89q12.92,23.59,12.91,53.26v8.11q0,29.67-12.83,53.19a94.25,94.25,0,0,1-35.41,36.82q-22.58,13.28-50.76,13.28H569.37V.09h70.38Q668.67.09,691.47,13.37Zm-7.75,89.85q0-28.9-11.21-43.74T639.75,44.65H624.41V170.5h16.67q20.5,0,31.57-14.75t11.07-44.12Z" transform="translate(0 -0.09)"/><path class="cls-1" d="M146.93,465.93H112.47V440.59l3.32-68.19L84.92,465.93H62.43L31.56,372.4,35,440.59v25.34H.51V331.77H45.75l27.92,89,27.93-89h45.33Z" transform="translate(0 -0.09)"/><path class="cls-1" d="M242.76,443.72H199.64l-6.82,22.21H155.87L204.8,331.77h32.62l49.21,134.16h-37Zm-8.57-27.82-13.08-42.39-13,42.39Z" transform="translate(0 -0.09)"/><path class="cls-1" d="M390.2,359.59h-40V465.93H315.74V359.59h-39V331.77H390.2Z" transform="translate(0 -0.09)"/><path class="cls-1" d="M512.2,359.59h-40V465.93H437.75V359.59h-39V331.77H512.2Z" transform="translate(0 -0.09)"/><path class="cls-1" d="M559.38,359.59v24.24h49.85v26.72H559.38V438.2h59.07v27.73H525V331.77h93.81v27.82Z" transform="translate(0 -0.09)"/><path class="cls-1" d="M740.08,464.46v1.47H703.22L680.65,420.6H664.71v45.33H630.33V331.77h54.1q15.66,0,27.18,4.65a38.53,38.53,0,0,1,17.83,13.78q6.31,9.12,6.31,22.11,0,15.48-5.85,24.37T712.71,411.2Zm-75.37-71.79h19.72q8.37,0,12.67-4.19t4.28-12.3q0-7.92-4.42-12.26t-12.53-4.33H664.71Z" transform="translate(0 -0.09)"/><path class="cls-1" d="M368.13,254H347.6v54.58H329.91V254h-20V239.67h58.23Z" transform="translate(0 -0.09)"/><path class="cls-1" d="M427.2,293.48a28.2,28.2,0,0,1-10.78,11.87,30.06,30.06,0,0,1-15.75,4.14,30.45,30.45,0,0,1-15.92-4.14A28,28,0,0,1,374,293.48a40.12,40.12,0,0,1-3.86-18.1v-2.5a40.12,40.12,0,0,1,3.86-18.1,28.14,28.14,0,0,1,10.76-11.89,32.12,32.12,0,0,1,31.62,0,28.42,28.42,0,0,1,10.83,11.89,39.73,39.73,0,0,1,3.9,18.1v2.5A39.85,39.85,0,0,1,427.2,293.48Zm-17.38-35.29a10.36,10.36,0,0,0-9.25-5q-12.44,0-12.44,19.63v2.6q0,9.56,3.15,14.64a10.34,10.34,0,0,0,9.39,5.09,10.2,10.2,0,0,0,9.17-5.16q3.23-5.15,3.22-14.57v-2.6Q413.06,263.23,409.82,258.19Z" transform="translate(0 -0.09)"/><rect class="cls-1" x="0.08" y="263.91" width="287" height="19"/><rect class="cls-1" x="453.08" y="263.91" width="287" height="19"/></svg>